<svg width="35" height="35" viewBox="0 0 35 35" fill="none" xmlns="http://www.w3.org/2000/svg">
<path d="M13.125 17.4981L16.0416 20.4147L21.875 14.5814M29.1666 18.9564C29.1666 26.2481 24.0625 29.8939 17.9958 32.0085C17.6781 32.1161 17.3331 32.111 17.0187 31.9939C10.9375 29.8939 5.83331 26.2481 5.83331 18.9564V8.74805C5.83331 8.36128 5.98696 7.99035 6.26045 7.71685C6.53394 7.44336 6.90487 7.28972 7.29165 7.28972C10.2083 7.28972 13.8541 5.53972 16.3916 3.32305C16.7006 3.05909 17.0936 2.91406 17.5 2.91406C17.9063 2.91406 18.2994 3.05909 18.6083 3.32305C21.1604 5.5543 24.7916 7.28972 27.7083 7.28972C28.0951 7.28972 28.466 7.44336 28.7395 7.71685C29.013 7.99035 29.1666 8.36128 29.1666 8.74805V18.9564Z" stroke="black" stroke-width="2" stroke-linecap="round" stroke-linejoin="round"/>
</svg>
