<svg width="35" height="35" viewBox="0 0 35 35" fill="none" xmlns="http://www.w3.org/2000/svg">
<path d="M17.5 32.082C14.6706 32.0825 11.9022 31.26 9.53212 29.7146C7.16205 28.1693 5.29271 25.9678 4.15192 23.3786C3.01112 20.7894 2.64815 17.9243 3.10724 15.1324C3.56633 12.3406 4.82766 9.74251 6.73748 7.65495M11.6666 17.4987L17.5 23.332M17.5 23.332L23.3333 17.4987M17.5 23.332L17.5 11.6654M31.3541 22.056C31.8188 20.6434 32.0647 19.168 32.0833 17.681M30.8729 11.6654C30.054 9.78145 28.8464 8.09178 27.3291 6.70703M28.2391 27.3643C27.8322 27.8073 27.3983 28.2247 26.9398 28.6141M22.3941 3.7612C18.7575 2.46566 14.7555 2.66494 11.2656 4.31536" stroke="black" stroke-width="2" stroke-linecap="round" stroke-linejoin="round"/>
</svg>
