<svg width="16" height="16" viewBox="0 0 16 16" fill="none" xmlns="http://www.w3.org/2000/svg">
<g clip-path="url(#clip0_2653_3171)">
<path d="M8.0026 8.00004L12.0026 12M8.0026 12L12.0026 8.00004M2.66927 10.6667C1.93594 10.6667 1.33594 10.0667 1.33594 9.33337V2.66671C1.33594 1.93337 1.93594 1.33337 2.66927 1.33337H9.33594C10.0693 1.33337 10.6693 1.93337 10.6693 2.66671M6.66927 5.33337H13.3359C14.0723 5.33337 14.6693 5.93033 14.6693 6.66671V13.3334C14.6693 14.0698 14.0723 14.6667 13.3359 14.6667H6.66927C5.93289 14.6667 5.33594 14.0698 5.33594 13.3334V6.66671C5.33594 5.93033 5.93289 5.33337 6.66927 5.33337Z" stroke="#262A32" stroke-width="1.5" stroke-linecap="round" stroke-linejoin="round"/>
</g>
<defs>
<clipPath id="clip0_2653_3171">
<rect width="16" height="16" fill="white"/>
</clipPath>
</defs>
</svg>
