<svg width="30" height="20" viewBox="0 0 30 20" fill="none" xmlns="http://www.w3.org/2000/svg"><rect x=".5" y=".5" width="29" height="19" rx="1.5" fill="#fff" stroke="#E4EDF1"/><path fill-rule="evenodd" clip-rule="evenodd" d="M12.487 6.468l-1.07 6.568h1.71l1.07-6.568h-1.71zm-2.508 0l-1.63 4.518-.193-.973-.042-.218a5.447 5.447 0 00-1.517-1.923 6.84 6.84 0 00-.761-.526l1.482 5.69h1.781l2.72-6.568H9.98zm6.674 1.824c0-.743 1.665-.648 2.397-.244l.244-1.411s-.753-.286-1.538-.286c-.849 0-2.864.37-2.864 2.174 0 1.697 2.365 1.718 2.365 2.609 0 .89-2.121.732-2.821.17l-.255 1.474s.764.371 1.93.371c1.167 0 2.928-.604 2.928-2.248 0-1.708-2.386-1.867-2.386-2.61zm6.977-1.824h-1.375c-.634 0-.79.49-.79.49l-2.55 6.078h1.783l.357-.975h2.173l.201.975h1.57L23.63 6.468zm-2.083 4.245l.899-2.458.505 2.458h-1.404z" fill="#005BAC"/><path fill-rule="evenodd" clip-rule="evenodd" d="M7.604 7.088s-.071-.593-.827-.593H4.032L4 6.607s1.32.269 2.585 1.276c1.21.963 1.605 2.164 1.605 2.164l-.586-2.96z" fill="#F6AC1D"/></svg>